<?xml version="1.0" standalone="no"?>
<!DOCTYPE svg PUBLIC "-//W3C//DTD SVG 20010904//EN"
 "http://www.w3.org/TR/2001/REC-SVG-20010904/DTD/svg10.dtd">
<svg version="1.0" xmlns="http://www.w3.org/2000/svg"
 width="200.000000pt" height="200.000000pt" viewBox="0 0 200.000000 200.000000"
 preserveAspectRatio="xMidYMid meet">

<g transform="translate(0.000000,200.000000) scale(0.100000,-0.100000)"
fill="#000000" stroke="none">
<path d="M552 1467 c-237 -238 -432 -437 -432 -443 0 -29 37 -44 108 -44 l72
0 0 -428 c0 -320 3 -431 12 -440 17 -17 1359 -17 1376 0 9 9 12 120 12 440 l0
427 76 3 c67 3 79 6 92 26 15 23 8 31 -419 458 -238 239 -441 434 -449 434 -8
0 -210 -195 -448 -433z m621 -122 c67 -17 137 -51 154 -74 18 -24 15 -59 -7
-81 -26 -26 -50 -25 -124 4 -81 32 -140 40 -208 27 -81 -15 -146 -48 -203
-106 -87 -87 -128 -212 -106 -323 38 -192 195 -319 383 -310 l63 3 -57 28
c-42 21 -60 35 -64 54 -10 38 7 75 39 86 24 8 49 -1 180 -63 84 -40 156 -77
161 -81 10 -9 -122 -289 -151 -321 -34 -38 -113 -8 -113 42 0 12 11 43 25 70
14 27 25 51 25 53 0 2 -28 -1 -61 -6 -220 -36 -454 108 -539 330 -28 71 -37
205 -20 286 26 129 137 276 256 339 105 56 251 73 367 43z"/>
</g>
</svg>
